<svg version="1.1" id="Layer_1" xmlns="http://www.w3.org/2000/svg" xmlns:xlink="http://www.w3.org/1999/xlink" x="0px" y="0px"
	 width="100%" viewBox="0 0 305 255" enable-background="new 0 0 305 255" xml:space="preserve">
<path fill="#FFFFFF" opacity="1.000000" stroke="none"	d="
M160.000000,256.000000	C155.975449,256.000000 151.950912,256.000000 147.757721,255.673157	C147.385712,255.083603 147.236206,254.678955 146.971298,254.578415	C127.094917,247.034576 107.205215,239.525803 87.325783,231.989990	C65.943855,223.884613 44.592533,215.697906 23.182087,207.668747	C15.859264,204.922623 8.398005,202.545654 1.000000,200.000000	C1.000000,152.645767 1.000000,105.291542 1.401782,57.468548	C13.213963,52.825100 24.662027,48.750061 36.026608,44.454170	C57.127438,36.477913 78.171371,28.351288 99.254669,20.328453	C114.509697,14.523450 129.796432,8.801678 145.040833,2.969099	C145.829559,2.667328 146.353027,1.672280 147.000000,1.000001	C151.024551,1.000000 155.049088,1.000000 159.242279,1.326831	C159.614120,1.916227 159.763428,2.320608 160.028152,2.421144	C179.890762,9.964482 199.764267,17.479132 219.632996,25.006363	C241.003250,33.102432 262.349121,41.263432 283.749084,49.280098	C291.098663,52.033333 298.579254,54.436760 306.000000,57.000000	C306.000000,104.354225 306.000000,151.708450 305.598236,199.531464	C293.786102,204.174896 282.338043,208.249878 270.973511,212.545746	C249.872650,220.522018 228.828690,228.648666 207.745377,236.671539	C192.490341,242.476532 177.203613,248.198349 161.959183,254.030914	C161.170441,254.332672 160.646957,255.327698 160.000000,256.000000M131.722275,231.966019	C135.777344,233.453278 139.775436,235.129852 143.904175,236.372345	C147.714142,237.518890 152.267029,239.921509 155.454651,238.805634	C175.854568,231.664230 195.951752,223.661469 216.180038,216.025558	C240.298340,206.921234 264.463135,197.939560 288.539093,188.725266	C289.697937,188.281754 290.846619,186.129166 290.890869,184.737213	C291.123810,177.411682 291.000000,170.074814 291.000000,162.741882	C291.000000,132.910172 291.039764,103.078278 290.896484,73.247253	C290.888306,71.543694 289.789612,68.798935 288.514313,68.304970	C269.553345,60.960629 250.452942,53.977646 231.433899,46.781342	C210.313934,38.790108 189.225632,30.714272 168.160202,22.580292	C160.224518,19.516087 153.116760,16.375360 143.758240,20.294268	C118.958206,30.679352 93.575378,39.673515 68.418068,49.204308	C51.794224,55.502220 35.137794,61.715706 18.574741,68.169205	C17.385761,68.632469 16.111444,70.752174 16.106668,72.106033	C15.973772,109.770180 15.978423,147.434937 16.097244,185.099182	C16.101088,186.318192 17.271980,188.232422 18.350307,188.646286	C41.519993,197.539032 64.765434,206.234009 87.971771,215.031738	C102.346573,220.481354 116.680946,226.037613 131.722275,231.966019z"/>
<path fill="#FFFFFF" opacity="1.000000" stroke="none"	d="
M168.000000,128.864258	C168.120773,139.173218 174.297287,147.233459 183.719223,147.659409	C188.143814,147.859467 193.003967,145.303818 197.060074,142.951050	C198.433197,142.154556 197.941467,138.143127 198.363373,135.167786	C193.435165,135.167786 189.007202,135.167786 184.291473,135.167786	C184.291473,131.730423 184.291473,128.656921 184.291473,125.287102	C193.266632,125.287102 202.342606,125.287102 211.993240,125.287102	C211.993240,132.965103 212.098465,140.732193 211.880600,148.490204	C211.847656,149.663559 210.550156,151.165436 209.432159,151.888168	C197.898209,159.344223 185.711609,160.908203 172.302795,157.225662	C162.515549,154.537735 154.718292,142.370285 154.131302,133.577255	C153.762909,128.058517 154.268631,122.395851 155.082123,116.901390	C156.837646,105.044388 170.541779,95.238472 181.117752,95.884727	C188.412003,96.330452 195.859329,95.392365 202.235275,100.044373	C207.470139,103.863815 210.559189,108.956604 211.146820,115.745667	C206.470291,116.280807 202.108719,116.779907 197.879562,117.263863	C191.321899,103.317719 176.697372,105.422417 170.593094,115.248878	C168.386734,118.800591 168.788406,123.972435 168.000000,128.864258z"/>
<path fill="#FFFFFF" opacity="1.000000" stroke="none"	d="
M71.000000,146.980682	C71.000000,130.196976 71.000000,113.911041 71.000000,97.015236	C82.059921,97.015236 93.188301,95.644348 103.806618,97.384979	C115.374100,99.281212 120.779144,105.938248 122.702202,119.786736	C123.704659,127.005676 122.289055,134.764709 120.867989,142.066147	C118.924690,152.050812 108.042366,158.462921 99.410942,158.090347	C90.138626,157.690140 80.835655,158.000000 71.000000,158.000000	C71.000000,154.346695 71.000000,150.912567 71.000000,146.980682M84.000000,115.544922	C84.000000,123.347122 83.999992,131.149323 84.000000,138.951523	C84.000015,147.409042 84.000023,147.409042 92.084534,147.985565	C101.086388,148.627487 106.208290,145.074066 107.912529,136.163666	C108.824295,131.396606 109.565392,126.262985 108.724121,121.593773	C107.968063,117.397514 107.733086,112.138428 102.459335,109.875580	C96.544113,107.337494 90.497093,106.503891 84.000000,107.287865	C84.000000,109.943535 84.000000,112.252769 84.000000,115.544922z"/>
<path fill="#FFFFFF" opacity="1.000000" stroke="none"	d="
M235.000000,119.000084	C235.000000,132.141174 235.000000,144.782288 235.000000,157.711212	C230.388306,157.711212 225.982391,157.711212 221.285583,157.711212	C221.285583,137.716629 221.285583,117.647774 221.285583,97.288818	C225.609543,97.288818 230.016083,97.288818 235.000000,97.288818	C235.000000,104.302116 235.000000,111.401115 235.000000,119.000084z"/>
<path fill="#FFFFFF" opacity="1.000000" stroke="none"	d="
M135.137451,157.999863	C131.746460,158.487259 131.981766,156.561859 131.984375,154.647278	C132.010315,135.656662 132.000076,116.665985 132.000076,97.337776	C136.181580,97.337776 140.253876,97.337776 144.667816,97.337776	C144.667816,117.189384 144.667816,137.263550 144.667816,158.000000	C141.797882,158.000000 138.707794,158.000000 135.137451,157.999863 z"/>
</svg>
