<svg width="30" height="30" version="1.1" viewBox="215 135 270 290" xmlns="http://www.w3.org/2000/svg" xmlns:xlink="http://www.w3.org/1999/xlink">
  <g fill-rule="evenodd" fill="#fff">
    <path d="m346.09 140.92-122.5 61.25c-2.9688 1.4844-4.8398 4.5156-4.8398 7.832v140c-0.019531 3.332 1.8594 6.3867 4.8398 7.875l122.5 61.25c2.4609 1.2305 5.3594 1.2305 7.8203 0l122.5-61.25c2.9805-1.4883 4.8594-4.543 4.8398-7.875v-140c0-3.3164-1.8711-6.3477-4.8398-7.832l-122.5-61.25c-2.4609-1.2305-5.3594-1.2305-7.8203 0zm117.66 74.488v129.19l-113.75 56.875-113.75-56.875v-129.19l113.75-56.875z"/>
    <path d="m288.75 277.93-18.375-36.844c-1.7852-3.6875-5.8906-5.6445-9.8789-4.707-3.9883 0.94141-6.793 4.5195-6.7461 8.6172v78.75h17.5v-41.684l18.418 36.848v-0.003906c1.8125 3.6367 5.8867 5.5469 9.8398 4.6133 3.9531-0.92969 6.7461-4.4609 6.7422-8.5234v-78.75h-17.5z"/>
    <path d="m323.75 245v78.75h17.5v-35h26.25v-17.5h-26.25v-17.5h35v-17.5h-43.75c-4.832 0-8.75 3.918-8.75 8.75z"/>
    <path d="m411.25 323.75h17.5v-70h17.5v-17.5h-52.5v17.5h17.5z"/>
  </g>
</svg>
